<mxfile host="app.diagrams.net" agent="Mozilla/5.0 (X11; Linux x86_64; rv:141.0) Gecko/20100101 Firefox/141.0" version="28.0.9">
  <diagram name="Page-1" id="SnUZ58hMH_E9pRCgcbzP">
    <mxGraphModel dx="3438" dy="782" grid="1" gridSize="10" guides="1" tooltips="1" connect="1" arrows="1" fold="1" page="1" pageScale="1" pageWidth="1100" pageHeight="850" math="0" shadow="0">
      <root>
        <mxCell id="0" />
        <mxCell id="1" parent="0" />
        <mxCell id="IY-TwNnu4pYOEqIesNJt-1" value="&lt;font style=&quot;font-size: 18px;&quot;&gt;«&lt;font&gt;Annotation&lt;/font&gt;»&lt;/font&gt;&lt;br&gt;&lt;div&gt;&lt;font style=&quot;font-size: 18px;&quot;&gt;&lt;b&gt;Desktop Application&lt;/b&gt;&lt;/font&gt;&lt;/div&gt;" style="html=1;dropTarget=0;whiteSpace=wrap;verticalAlign=top;fillColor=default;" parent="1" vertex="1">
          <mxGeometry x="-40" y="50" width="1240" height="872.5" as="geometry" />
        </mxCell>
        <mxCell id="IY-TwNnu4pYOEqIesNJt-2" value="" style="shape=module;jettyWidth=8;jettyHeight=4;" parent="IY-TwNnu4pYOEqIesNJt-1" vertex="1">
          <mxGeometry x="1" width="20" height="20" relative="1" as="geometry">
            <mxPoint x="-27" y="7" as="offset" />
          </mxGeometry>
        </mxCell>
        <mxCell id="IY-TwNnu4pYOEqIesNJt-5" value="&lt;div&gt;&lt;font style=&quot;font-size: 16px;&quot;&gt;«Component»&lt;/font&gt;&lt;/div&gt;&lt;font style=&quot;font-size: 16px;&quot;&gt;&lt;b&gt;&lt;font&gt;Authentication&lt;/font&gt;&lt;/b&gt;&lt;/font&gt;" style="html=1;dropTarget=0;whiteSpace=wrap;fillColor=light-dark(#1ba1e2, #f6d32d);fontColor=#ffffff;strokeColor=light-dark(default, #f6d32d);" parent="1" vertex="1">
          <mxGeometry x="190" y="260" width="180" height="110" as="geometry" />
        </mxCell>
        <mxCell id="IY-TwNnu4pYOEqIesNJt-6" value="" style="shape=module;jettyWidth=8;jettyHeight=4;" parent="IY-TwNnu4pYOEqIesNJt-5" vertex="1">
          <mxGeometry x="1" width="20" height="20" relative="1" as="geometry">
            <mxPoint x="-27" y="7" as="offset" />
          </mxGeometry>
        </mxCell>
        <mxCell id="IY-TwNnu4pYOEqIesNJt-9" value="" style="ellipse;whiteSpace=wrap;html=1;align=center;aspect=fixed;fillColor=none;strokeColor=none;resizable=0;perimeter=centerPerimeter;rotatable=0;allowArrows=0;points=[];outlineConnect=1;" parent="1" vertex="1">
          <mxGeometry x="430" y="200" width="10" height="10" as="geometry" />
        </mxCell>
        <mxCell id="IY-TwNnu4pYOEqIesNJt-10" value="&lt;div&gt;&lt;font style=&quot;font-size: 16px;&quot;&gt;«Component»&lt;/font&gt;&lt;/div&gt;&lt;font style=&quot;font-size: 16px;&quot;&gt;&lt;b&gt;&lt;font&gt;Application Shell&lt;/font&gt;&lt;/b&gt;&lt;/font&gt;" style="html=1;dropTarget=0;whiteSpace=wrap;fillColor=#a0522d;strokeColor=#6D1F00;fontColor=#ffffff;" parent="1" vertex="1">
          <mxGeometry x="490" y="110" width="180" height="110" as="geometry" />
        </mxCell>
        <mxCell id="IY-TwNnu4pYOEqIesNJt-11" value="" style="shape=module;jettyWidth=8;jettyHeight=4;" parent="IY-TwNnu4pYOEqIesNJt-10" vertex="1">
          <mxGeometry x="1" width="20" height="20" relative="1" as="geometry">
            <mxPoint x="-27" y="7" as="offset" />
          </mxGeometry>
        </mxCell>
        <mxCell id="IY-TwNnu4pYOEqIesNJt-12" value="&lt;div&gt;&lt;font style=&quot;font-size: 16px;&quot;&gt;«Component»&lt;/font&gt;&lt;/div&gt;&lt;font style=&quot;font-size: 16px;&quot;&gt;&lt;b&gt;&lt;font&gt;Server Management&lt;/font&gt;&lt;/b&gt;&lt;/font&gt;" style="html=1;dropTarget=0;whiteSpace=wrap;fillColor=#008a00;fontColor=#ffffff;strokeColor=#005700;" parent="1" vertex="1">
          <mxGeometry x="790" y="260" width="180" height="110" as="geometry" />
        </mxCell>
        <mxCell id="IY-TwNnu4pYOEqIesNJt-13" value="" style="shape=module;jettyWidth=8;jettyHeight=4;" parent="IY-TwNnu4pYOEqIesNJt-12" vertex="1">
          <mxGeometry x="1" width="20" height="20" relative="1" as="geometry">
            <mxPoint x="-27" y="7" as="offset" />
          </mxGeometry>
        </mxCell>
        <mxCell id="IY-TwNnu4pYOEqIesNJt-14" value="&lt;div&gt;&lt;font style=&quot;font-size: 16px;&quot;&gt;«Component»&lt;/font&gt;&lt;/div&gt;&lt;font style=&quot;font-size: 16px;&quot;&gt;&lt;b&gt;&lt;font&gt;Communication&lt;/font&gt;&lt;/b&gt;&lt;/font&gt;" style="html=1;dropTarget=0;whiteSpace=wrap;fillColor=light-dark(#e51400, #e01b24);fontColor=#ffffff;strokeColor=light-dark(#B20000, #ed333b);" parent="1" vertex="1">
          <mxGeometry x="790" y="440" width="180" height="110" as="geometry" />
        </mxCell>
        <mxCell id="IY-TwNnu4pYOEqIesNJt-15" value="" style="shape=module;jettyWidth=8;jettyHeight=4;" parent="IY-TwNnu4pYOEqIesNJt-14" vertex="1">
          <mxGeometry x="1" width="20" height="20" relative="1" as="geometry">
            <mxPoint x="-27" y="7" as="offset" />
          </mxGeometry>
        </mxCell>
        <mxCell id="IY-TwNnu4pYOEqIesNJt-16" value="&lt;div&gt;&lt;font style=&quot;font-size: 16px;&quot;&gt;«Component»&lt;/font&gt;&lt;/div&gt;&lt;font style=&quot;font-size: 16px;&quot;&gt;&lt;b&gt;&lt;font&gt;Real-Time Media&lt;/font&gt;&lt;/b&gt;&lt;/font&gt;" style="html=1;dropTarget=0;whiteSpace=wrap;fillColor=#0050ef;fontColor=#ffffff;strokeColor=#001DBC;" parent="1" vertex="1">
          <mxGeometry x="190" y="440" width="180" height="110" as="geometry" />
        </mxCell>
        <mxCell id="IY-TwNnu4pYOEqIesNJt-17" value="" style="shape=module;jettyWidth=8;jettyHeight=4;" parent="IY-TwNnu4pYOEqIesNJt-16" vertex="1">
          <mxGeometry x="1" width="20" height="20" relative="1" as="geometry">
            <mxPoint x="-27" y="7" as="offset" />
          </mxGeometry>
        </mxCell>
        <mxCell id="IY-TwNnu4pYOEqIesNJt-18" value="&lt;div&gt;&lt;font style=&quot;font-size: 16px;&quot;&gt;«Component»&lt;/font&gt;&lt;/div&gt;&lt;font style=&quot;font-size: 16px;&quot;&gt;&lt;b&gt;&lt;font&gt;Data Management&lt;/font&gt;&lt;/b&gt;&lt;/font&gt;" style="html=1;dropTarget=0;whiteSpace=wrap;fillColor=#6a00ff;fontColor=#ffffff;strokeColor=#3700CC;" parent="1" vertex="1">
          <mxGeometry x="190" y="620" width="180" height="110" as="geometry" />
        </mxCell>
        <mxCell id="IY-TwNnu4pYOEqIesNJt-19" value="" style="shape=module;jettyWidth=8;jettyHeight=4;" parent="IY-TwNnu4pYOEqIesNJt-18" vertex="1">
          <mxGeometry x="1" width="20" height="20" relative="1" as="geometry">
            <mxPoint x="-27" y="7" as="offset" />
          </mxGeometry>
        </mxCell>
        <mxCell id="IY-TwNnu4pYOEqIesNJt-20" value="&lt;div&gt;&lt;font style=&quot;font-size: 16px;&quot;&gt;«Component»&lt;/font&gt;&lt;/div&gt;&lt;font style=&quot;font-size: 16px;&quot;&gt;&lt;b&gt;&lt;font&gt;User Management&lt;/font&gt;&lt;/b&gt;&lt;/font&gt;" style="html=1;dropTarget=0;whiteSpace=wrap;fillColor=#a20025;fontColor=#ffffff;strokeColor=#6F0000;" parent="1" vertex="1">
          <mxGeometry x="790" y="620" width="180" height="110" as="geometry" />
        </mxCell>
        <mxCell id="IY-TwNnu4pYOEqIesNJt-21" value="" style="shape=module;jettyWidth=8;jettyHeight=4;" parent="IY-TwNnu4pYOEqIesNJt-20" vertex="1">
          <mxGeometry x="1" width="20" height="20" relative="1" as="geometry">
            <mxPoint x="-27" y="7" as="offset" />
          </mxGeometry>
        </mxCell>
        <mxCell id="IY-TwNnu4pYOEqIesNJt-22" value="&lt;div&gt;&lt;font style=&quot;font-size: 16px;&quot;&gt;«Component»&lt;/font&gt;&lt;/div&gt;&lt;font style=&quot;font-size: 16px;&quot;&gt;&lt;b&gt;&lt;font&gt;Network&lt;/font&gt;&lt;/b&gt;&lt;/font&gt;" style="html=1;dropTarget=0;whiteSpace=wrap;fillColor=light-dark(#647687, #613583);strokeColor=light-dark(#314354, #613583);fontColor=#ffffff;" parent="1" vertex="1">
          <mxGeometry x="490" y="770" width="180" height="110" as="geometry" />
        </mxCell>
        <mxCell id="IY-TwNnu4pYOEqIesNJt-23" value="" style="shape=module;jettyWidth=8;jettyHeight=4;" parent="IY-TwNnu4pYOEqIesNJt-22" vertex="1">
          <mxGeometry x="1" width="20" height="20" relative="1" as="geometry">
            <mxPoint x="-27" y="7" as="offset" />
          </mxGeometry>
        </mxCell>
        <mxCell id="IY-TwNnu4pYOEqIesNJt-24" value="" style="shape=link;html=1;rounded=0;exitX=0.5;exitY=1;exitDx=0;exitDy=0;entryX=0.5;entryY=0;entryDx=0;entryDy=0;" parent="1" source="IY-TwNnu4pYOEqIesNJt-26" target="IY-TwNnu4pYOEqIesNJt-25" edge="1">
          <mxGeometry width="100" relative="1" as="geometry">
            <mxPoint x="600" y="720" as="sourcePoint" />
            <mxPoint x="580" y="1060" as="targetPoint" />
          </mxGeometry>
        </mxCell>
        <mxCell id="IY-TwNnu4pYOEqIesNJt-25" value="&lt;font style=&quot;font-size: 18px;&quot;&gt;Backend&lt;/font&gt;" style="ellipse;whiteSpace=wrap;html=1;aspect=fixed;" parent="1" vertex="1">
          <mxGeometry x="525" y="940" width="110" height="110" as="geometry" />
        </mxCell>
        <mxCell id="IY-TwNnu4pYOEqIesNJt-27" value="" style="shape=link;html=1;rounded=0;exitX=0.5;exitY=1;exitDx=0;exitDy=0;entryX=0.5;entryY=0;entryDx=0;entryDy=0;" parent="1" source="IY-TwNnu4pYOEqIesNJt-22" target="IY-TwNnu4pYOEqIesNJt-26" edge="1">
          <mxGeometry width="100" relative="1" as="geometry">
            <mxPoint x="580" y="875" as="sourcePoint" />
            <mxPoint x="580" y="920" as="targetPoint" />
          </mxGeometry>
        </mxCell>
        <mxCell id="IY-TwNnu4pYOEqIesNJt-26" value="" style="rounded=0;whiteSpace=wrap;html=1;" parent="1" vertex="1">
          <mxGeometry x="570" y="910" width="20" height="20" as="geometry" />
        </mxCell>
        <mxCell id="IY-TwNnu4pYOEqIesNJt-30" value="" style="endArrow=diamondThin;endFill=1;endSize=24;html=1;rounded=0;exitX=1;exitY=0.5;exitDx=0;exitDy=0;entryX=1;entryY=0.5;entryDx=0;entryDy=0;fillColor=#a0522d;strokeColor=#6D1F00;" parent="1" source="IY-TwNnu4pYOEqIesNJt-10" target="IY-TwNnu4pYOEqIesNJt-12" edge="1">
          <mxGeometry width="160" relative="1" as="geometry">
            <mxPoint x="560" y="530" as="sourcePoint" />
            <mxPoint x="720" y="530" as="targetPoint" />
            <Array as="points">
              <mxPoint x="1010" y="165" />
              <mxPoint x="1010" y="315" />
            </Array>
          </mxGeometry>
        </mxCell>
        <mxCell id="IY-TwNnu4pYOEqIesNJt-33" value="" style="endArrow=diamondThin;endFill=1;endSize=24;html=1;rounded=0;exitX=1;exitY=0.5;exitDx=0;exitDy=0;entryX=1;entryY=0.5;entryDx=0;entryDy=0;fillColor=#a0522d;strokeColor=#6D1F00;" parent="1" source="IY-TwNnu4pYOEqIesNJt-10" target="IY-TwNnu4pYOEqIesNJt-14" edge="1">
          <mxGeometry width="160" relative="1" as="geometry">
            <mxPoint x="690" y="400" as="sourcePoint" />
            <mxPoint x="810" y="497" as="targetPoint" />
            <Array as="points">
              <mxPoint x="1010" y="165" />
              <mxPoint x="1010" y="495" />
            </Array>
          </mxGeometry>
        </mxCell>
        <mxCell id="IY-TwNnu4pYOEqIesNJt-34" value="" style="endArrow=diamondThin;endFill=1;endSize=24;html=1;rounded=0;entryX=0;entryY=0.5;entryDx=0;entryDy=0;fillColor=#a0522d;strokeColor=#6D1F00;exitX=0;exitY=0.5;exitDx=0;exitDy=0;" parent="1" source="IY-TwNnu4pYOEqIesNJt-10" target="IY-TwNnu4pYOEqIesNJt-5" edge="1">
          <mxGeometry width="160" relative="1" as="geometry">
            <mxPoint x="490" y="165" as="sourcePoint" />
            <mxPoint x="765" y="808" as="targetPoint" />
            <Array as="points">
              <mxPoint x="150" y="165" />
              <mxPoint x="150" y="315" />
            </Array>
          </mxGeometry>
        </mxCell>
        <mxCell id="IY-TwNnu4pYOEqIesNJt-35" value="" style="endArrow=diamondThin;endFill=1;endSize=24;html=1;rounded=0;fillColor=#a0522d;strokeColor=#6D1F00;exitX=0;exitY=0.5;exitDx=0;exitDy=0;" parent="1" source="IY-TwNnu4pYOEqIesNJt-10" edge="1">
          <mxGeometry width="160" relative="1" as="geometry">
            <mxPoint x="150" y="190" as="sourcePoint" />
            <mxPoint x="190" y="490" as="targetPoint" />
            <Array as="points">
              <mxPoint x="150" y="165" />
              <mxPoint x="150" y="490" />
            </Array>
          </mxGeometry>
        </mxCell>
        <mxCell id="IY-TwNnu4pYOEqIesNJt-36" value="" style="endArrow=diamondThin;endFill=1;endSize=24;html=1;rounded=0;entryX=1;entryY=0.5;entryDx=0;entryDy=0;fillColor=#a0522d;strokeColor=#6D1F00;exitX=1;exitY=0.5;exitDx=0;exitDy=0;" parent="1" source="IY-TwNnu4pYOEqIesNJt-10" target="IY-TwNnu4pYOEqIesNJt-20" edge="1">
          <mxGeometry width="160" relative="1" as="geometry">
            <mxPoint x="600" y="215" as="sourcePoint" />
            <mxPoint x="756" y="598" as="targetPoint" />
            <Array as="points">
              <mxPoint x="1010" y="165" />
              <mxPoint x="1010" y="675" />
            </Array>
          </mxGeometry>
        </mxCell>
        <mxCell id="IY-TwNnu4pYOEqIesNJt-38" value="" style="endArrow=diamondThin;endFill=1;endSize=24;html=1;rounded=0;entryX=0;entryY=0.5;entryDx=0;entryDy=0;exitX=0;exitY=0.5;exitDx=0;exitDy=0;fillColor=#a0522d;strokeColor=#6D1F00;" parent="1" source="IY-TwNnu4pYOEqIesNJt-10" target="IY-TwNnu4pYOEqIesNJt-18" edge="1">
          <mxGeometry width="160" relative="1" as="geometry">
            <mxPoint x="696" y="460" as="sourcePoint" />
            <mxPoint x="540" y="738" as="targetPoint" />
            <Array as="points">
              <mxPoint x="150" y="165" />
              <mxPoint x="150" y="675" />
            </Array>
          </mxGeometry>
        </mxCell>
        <mxCell id="IY-TwNnu4pYOEqIesNJt-40" value="Use" style="endArrow=open;endSize=12;dashed=1;html=1;rounded=0;exitX=0.5;exitY=1;exitDx=0;exitDy=0;entryX=0.5;entryY=0;entryDx=0;entryDy=0;fillColor=#a0522d;strokeColor=light-dark(#6D1F00, #ffffff);jumpStyle=arc;labelPosition=center;verticalLabelPosition=bottom;align=center;verticalAlign=top;startArrow=open;startFill=0;" parent="1" source="IY-TwNnu4pYOEqIesNJt-10" target="IY-TwNnu4pYOEqIesNJt-22" edge="1">
          <mxGeometry width="160" relative="1" as="geometry">
            <mxPoint x="710" y="520" as="sourcePoint" />
            <mxPoint x="870" y="520" as="targetPoint" />
            <mxPoint as="offset" />
          </mxGeometry>
        </mxCell>
        <mxCell id="IY-TwNnu4pYOEqIesNJt-41" value="Use" style="endArrow=open;endSize=12;dashed=1;html=1;rounded=0;exitX=1;exitY=0.75;exitDx=0;exitDy=0;entryX=1;entryY=0.75;entryDx=0;entryDy=0;fillColor=#6a00ff;strokeColor=light-dark(#3700CC, #f6d32d);verticalAlign=top;jumpStyle=arc;" parent="1" source="IY-TwNnu4pYOEqIesNJt-5" target="IY-TwNnu4pYOEqIesNJt-18" edge="1">
          <mxGeometry width="160" relative="1" as="geometry">
            <mxPoint x="710" y="520" as="sourcePoint" />
            <mxPoint x="870" y="520" as="targetPoint" />
            <Array as="points">
              <mxPoint x="560" y="343" />
              <mxPoint x="560" y="703" />
            </Array>
          </mxGeometry>
        </mxCell>
        <mxCell id="IY-TwNnu4pYOEqIesNJt-42" value="" style="rounded=0;orthogonalLoop=1;jettySize=auto;html=1;endArrow=halfCircle;endFill=0;endSize=6;strokeWidth=1;sketch=0;exitX=0;exitY=0.75;exitDx=0;exitDy=0;strokeColor=light-dark(#000000,#F6D32D);jumpStyle=arc;" parent="1" source="IY-TwNnu4pYOEqIesNJt-5" edge="1">
          <mxGeometry relative="1" as="geometry">
            <mxPoint x="190" y="312" as="sourcePoint" />
            <mxPoint x="120" y="560" as="targetPoint" />
            <Array as="points">
              <mxPoint x="120" y="342" />
            </Array>
          </mxGeometry>
        </mxCell>
        <mxCell id="IY-TwNnu4pYOEqIesNJt-46" value="Server&lt;br&gt;Access" style="edgeLabel;html=1;align=center;verticalAlign=middle;resizable=0;points=[];" parent="IY-TwNnu4pYOEqIesNJt-42" vertex="1" connectable="0">
          <mxGeometry x="0.3793" relative="1" as="geometry">
            <mxPoint x="-2" y="-83" as="offset" />
          </mxGeometry>
        </mxCell>
        <mxCell id="IY-TwNnu4pYOEqIesNJt-43" value="" style="rounded=0;orthogonalLoop=1;jettySize=auto;html=1;endArrow=oval;endFill=0;sketch=0;sourcePerimeterSpacing=0;targetPerimeterSpacing=0;endSize=10;exitX=0;exitY=0.25;exitDx=0;exitDy=0;strokeColor=light-dark(#000000,#A9B8C7);jumpStyle=arc;" parent="1" source="IY-TwNnu4pYOEqIesNJt-22" edge="1">
          <mxGeometry relative="1" as="geometry">
            <mxPoint x="770" y="555" as="sourcePoint" />
            <mxPoint x="120" y="560" as="targetPoint" />
            <Array as="points">
              <mxPoint x="120" y="800" />
            </Array>
          </mxGeometry>
        </mxCell>
        <mxCell id="IY-TwNnu4pYOEqIesNJt-44" value="" style="ellipse;whiteSpace=wrap;html=1;align=center;aspect=fixed;fillColor=none;strokeColor=none;resizable=0;perimeter=centerPerimeter;rotatable=0;allowArrows=0;points=[];outlineConnect=1;" parent="1" vertex="1">
          <mxGeometry x="785" y="550" width="10" height="10" as="geometry" />
        </mxCell>
        <mxCell id="IY-TwNnu4pYOEqIesNJt-48" value="" style="endArrow=open;html=1;rounded=0;entryX=0.25;entryY=1;entryDx=0;entryDy=0;exitX=0.25;exitY=0;exitDx=0;exitDy=0;strokeColor=light-dark(#000000, #ffffff);startArrow=open;startFill=0;endFill=0;" parent="1" source="IY-TwNnu4pYOEqIesNJt-16" target="IY-TwNnu4pYOEqIesNJt-5" edge="1">
          <mxGeometry width="50" height="50" relative="1" as="geometry">
            <mxPoint x="430" y="540" as="sourcePoint" />
            <mxPoint x="480" y="490" as="targetPoint" />
          </mxGeometry>
        </mxCell>
        <mxCell id="IY-TwNnu4pYOEqIesNJt-49" value="" style="endArrow=open;html=1;rounded=0;exitX=0;exitY=0.25;exitDx=0;exitDy=0;strokeColor=light-dark(#000000, #ffffff);startArrow=open;startFill=0;entryX=1;entryY=0.25;entryDx=0;entryDy=0;endFill=0;jumpStyle=arc;" parent="1" source="IY-TwNnu4pYOEqIesNJt-12" target="IY-TwNnu4pYOEqIesNJt-5" edge="1">
          <mxGeometry width="50" height="50" relative="1" as="geometry">
            <mxPoint x="390" y="475" as="sourcePoint" />
            <mxPoint x="835" y="390" as="targetPoint" />
          </mxGeometry>
        </mxCell>
        <mxCell id="IY-TwNnu4pYOEqIesNJt-50" value="" style="endArrow=open;html=1;rounded=0;entryX=0.75;entryY=1;entryDx=0;entryDy=0;strokeColor=light-dark(#000000, #ffffff);startArrow=open;startFill=0;endFill=0;jumpStyle=arc;" parent="1" target="IY-TwNnu4pYOEqIesNJt-5" edge="1">
          <mxGeometry width="50" height="50" relative="1" as="geometry">
            <mxPoint x="835" y="440" as="sourcePoint" />
            <mxPoint x="340" y="370" as="targetPoint" />
            <Array as="points">
              <mxPoint x="835" y="390" />
              <mxPoint x="325" y="390" />
            </Array>
          </mxGeometry>
        </mxCell>
        <mxCell id="IY-TwNnu4pYOEqIesNJt-52" value="" style="endArrow=open;html=1;rounded=0;exitX=0.25;exitY=0;exitDx=0;exitDy=0;strokeColor=light-dark(#000000, #ffffff);startArrow=open;startFill=0;entryX=0.5;entryY=1;entryDx=0;entryDy=0;jumpStyle=arc;endFill=0;" parent="1" source="IY-TwNnu4pYOEqIesNJt-20" target="IY-TwNnu4pYOEqIesNJt-5" edge="1">
          <mxGeometry width="50" height="50" relative="1" as="geometry">
            <mxPoint x="910" y="545" as="sourcePoint" />
            <mxPoint x="720" y="390" as="targetPoint" />
            <Array as="points">
              <mxPoint x="835" y="580" />
              <mxPoint x="720" y="580" />
              <mxPoint x="720" y="400" />
              <mxPoint x="280" y="400" />
            </Array>
          </mxGeometry>
        </mxCell>
        <mxCell id="IY-TwNnu4pYOEqIesNJt-56" value="" style="rounded=0;orthogonalLoop=1;jettySize=auto;html=1;endArrow=halfCircle;endFill=0;endSize=6;strokeWidth=1;sketch=0;exitX=1;exitY=0.75;exitDx=0;exitDy=0;strokeColor=light-dark(#000000,#F6D32D);jumpStyle=arc;" parent="1" source="IY-TwNnu4pYOEqIesNJt-12" edge="1">
          <mxGeometry relative="1" as="geometry">
            <mxPoint x="270" y="510" as="sourcePoint" />
            <mxPoint x="1050" y="496" as="targetPoint" />
            <Array as="points">
              <mxPoint x="1050" y="342" />
            </Array>
          </mxGeometry>
        </mxCell>
        <mxCell id="IY-TwNnu4pYOEqIesNJt-57" value="Server&lt;br&gt;Modifications" style="edgeLabel;html=1;align=center;verticalAlign=middle;resizable=0;points=[];" parent="IY-TwNnu4pYOEqIesNJt-56" vertex="1" connectable="0">
          <mxGeometry x="0.3793" relative="1" as="geometry">
            <mxPoint x="-2" y="-83" as="offset" />
          </mxGeometry>
        </mxCell>
        <mxCell id="IY-TwNnu4pYOEqIesNJt-58" value="" style="rounded=0;orthogonalLoop=1;jettySize=auto;html=1;endArrow=oval;endFill=0;sketch=0;sourcePerimeterSpacing=0;targetPerimeterSpacing=0;endSize=10;exitX=1;exitY=0.25;exitDx=0;exitDy=0;strokeColor=light-dark(#000000,#A9B8C7);jumpStyle=arc;" parent="1" source="IY-TwNnu4pYOEqIesNJt-22" edge="1">
          <mxGeometry relative="1" as="geometry">
            <mxPoint x="800" y="1041" as="sourcePoint" />
            <mxPoint x="1050" y="496" as="targetPoint" />
            <Array as="points">
              <mxPoint x="1050" y="798" />
            </Array>
          </mxGeometry>
        </mxCell>
        <mxCell id="IY-TwNnu4pYOEqIesNJt-60" value="" style="endArrow=open;html=1;rounded=0;entryX=0.5;entryY=0;entryDx=0;entryDy=0;strokeColor=light-dark(#000000, #ffffff);startArrow=open;startFill=0;endFill=0;jumpStyle=arc;exitX=0.5;exitY=1;exitDx=0;exitDy=0;" parent="1" source="IY-TwNnu4pYOEqIesNJt-12" target="IY-TwNnu4pYOEqIesNJt-14" edge="1">
          <mxGeometry width="50" height="50" relative="1" as="geometry">
            <mxPoint x="1200" y="525" as="sourcePoint" />
            <mxPoint x="690" y="450" as="targetPoint" />
            <Array as="points">
              <mxPoint x="880" y="410" />
            </Array>
          </mxGeometry>
        </mxCell>
        <mxCell id="IY-TwNnu4pYOEqIesNJt-61" value="Use" style="endArrow=open;endSize=12;dashed=1;html=1;rounded=0;entryX=0.75;entryY=0;entryDx=0;entryDy=0;exitX=0.75;exitY=1;exitDx=0;exitDy=0;jumpStyle=arc;strokeColor=light-dark(#000000,#82CD82);labelPosition=right;verticalLabelPosition=middle;align=left;verticalAlign=middle;spacingTop=-2;spacing=16;" parent="1" source="IY-TwNnu4pYOEqIesNJt-12" target="IY-TwNnu4pYOEqIesNJt-16" edge="1">
          <mxGeometry width="160" relative="1" as="geometry">
            <mxPoint x="925" y="365" as="sourcePoint" />
            <mxPoint x="580" y="530" as="targetPoint" />
            <Array as="points">
              <mxPoint x="925" y="410" />
              <mxPoint x="325" y="410" />
            </Array>
          </mxGeometry>
        </mxCell>
        <mxCell id="IY-TwNnu4pYOEqIesNJt-62" value="Use" style="endArrow=open;endSize=12;dashed=1;html=1;rounded=0;entryX=1;entryY=0.75;entryDx=0;entryDy=0;exitX=0.5;exitY=0;exitDx=0;exitDy=0;jumpStyle=arc;strokeColor=light-dark(#000000,#82CD82);" parent="1" source="IY-TwNnu4pYOEqIesNJt-12" target="IY-TwNnu4pYOEqIesNJt-10" edge="1">
          <mxGeometry width="160" relative="1" as="geometry">
            <mxPoint x="1620" y="380" as="sourcePoint" />
            <mxPoint x="930" y="455" as="targetPoint" />
            <Array as="points">
              <mxPoint x="880" y="193" />
            </Array>
          </mxGeometry>
        </mxCell>
        <mxCell id="IY-TwNnu4pYOEqIesNJt-64" value="Use" style="endArrow=open;endSize=12;dashed=1;html=1;rounded=0;exitX=0.75;exitY=1;exitDx=0;exitDy=0;entryX=0.75;entryY=0;entryDx=0;entryDy=0;strokeColor=light-dark(#000000,#ED333B);" parent="1" source="IY-TwNnu4pYOEqIesNJt-14" target="IY-TwNnu4pYOEqIesNJt-20" edge="1">
          <mxGeometry width="160" relative="1" as="geometry">
            <mxPoint x="610" y="560" as="sourcePoint" />
            <mxPoint x="770" y="560" as="targetPoint" />
          </mxGeometry>
        </mxCell>
        <mxCell id="IY-TwNnu4pYOEqIesNJt-65" value="Use" style="endArrow=open;endSize=12;dashed=1;html=1;rounded=0;exitX=0;exitY=0.75;exitDx=0;exitDy=0;entryX=1;entryY=0.25;entryDx=0;entryDy=0;strokeColor=light-dark(#000000,#ED333B);jumpStyle=arc;spacingTop=7;" parent="1" source="IY-TwNnu4pYOEqIesNJt-14" target="IY-TwNnu4pYOEqIesNJt-18" edge="1">
          <mxGeometry width="160" relative="1" as="geometry">
            <mxPoint x="610" y="560" as="sourcePoint" />
            <mxPoint x="770" y="560" as="targetPoint" />
            <Array as="points">
              <mxPoint x="600" y="523" />
              <mxPoint x="600" y="648" />
            </Array>
          </mxGeometry>
        </mxCell>
        <mxCell id="IY-TwNnu4pYOEqIesNJt-66" value="" style="rounded=0;orthogonalLoop=1;jettySize=auto;html=1;endArrow=halfCircle;endFill=0;endSize=6;strokeWidth=1;sketch=0;exitX=1;exitY=0.25;exitDx=0;exitDy=0;strokeColor=light-dark(#000000,#F6D32D);jumpStyle=arc;" parent="1" source="IY-TwNnu4pYOEqIesNJt-14" edge="1">
          <mxGeometry relative="1" as="geometry">
            <mxPoint x="1090" y="621" as="sourcePoint" />
            <mxPoint x="1080" y="640" as="targetPoint" />
            <Array as="points">
              <mxPoint x="1080" y="468" />
            </Array>
          </mxGeometry>
        </mxCell>
        <mxCell id="IY-TwNnu4pYOEqIesNJt-68" value="Send&lt;br&gt;Text&lt;br&gt;Messages" style="edgeLabel;html=1;align=center;verticalAlign=middle;resizable=0;points=[];" parent="IY-TwNnu4pYOEqIesNJt-66" vertex="1" connectable="0">
          <mxGeometry x="0.2773" relative="1" as="geometry">
            <mxPoint as="offset" />
          </mxGeometry>
        </mxCell>
        <mxCell id="IY-TwNnu4pYOEqIesNJt-69" value="" style="rounded=0;orthogonalLoop=1;jettySize=auto;html=1;endArrow=oval;endFill=0;sketch=0;sourcePerimeterSpacing=0;targetPerimeterSpacing=0;endSize=10;exitX=1;exitY=0.5;exitDx=0;exitDy=0;strokeColor=light-dark(#000000,#A9B8C7);jumpStyle=arc;" parent="1" source="IY-TwNnu4pYOEqIesNJt-22" edge="1">
          <mxGeometry relative="1" as="geometry">
            <mxPoint x="1070" y="1089" as="sourcePoint" />
            <mxPoint x="1080" y="640" as="targetPoint" />
            <Array as="points">
              <mxPoint x="1080" y="825" />
            </Array>
          </mxGeometry>
        </mxCell>
        <mxCell id="IY-TwNnu4pYOEqIesNJt-70" value="Use" style="endArrow=open;endSize=12;dashed=1;html=1;rounded=0;exitX=0;exitY=0.5;exitDx=0;exitDy=0;entryX=1;entryY=0.5;entryDx=0;entryDy=0;strokeColor=light-dark(#000000,#FFFFFF);jumpStyle=arc;labelPosition=right;verticalLabelPosition=middle;align=left;verticalAlign=middle;spacingRight=0;spacingTop=-4;spacing=32;startArrow=open;startFill=0;startSize=12;" parent="1" source="IY-TwNnu4pYOEqIesNJt-14" target="IY-TwNnu4pYOEqIesNJt-16" edge="1">
          <mxGeometry width="160" relative="1" as="geometry">
            <mxPoint x="1100" y="640" as="sourcePoint" />
            <mxPoint x="680" y="765" as="targetPoint" />
            <Array as="points" />
          </mxGeometry>
        </mxCell>
        <mxCell id="IY-TwNnu4pYOEqIesNJt-71" value="Use" style="endArrow=open;endSize=12;dashed=1;html=1;rounded=0;exitX=0;exitY=0.25;exitDx=0;exitDy=0;entryX=0.75;entryY=1;entryDx=0;entryDy=0;strokeColor=light-dark(#000000,#ED333B);jumpStyle=arc;labelPosition=center;verticalLabelPosition=middle;align=center;verticalAlign=middle;spacingRight=0;spacingTop=23;spacing=32;" parent="1" source="IY-TwNnu4pYOEqIesNJt-14" target="IY-TwNnu4pYOEqIesNJt-10" edge="1">
          <mxGeometry width="160" relative="1" as="geometry">
            <mxPoint x="1200" y="500" as="sourcePoint" />
            <mxPoint x="780" y="500" as="targetPoint" />
            <Array as="points">
              <mxPoint x="625" y="466" />
            </Array>
          </mxGeometry>
        </mxCell>
        <mxCell id="IY-TwNnu4pYOEqIesNJt-73" value="Use" style="endArrow=open;endSize=12;dashed=1;html=1;rounded=0;exitX=1;exitY=0.75;exitDx=0;exitDy=0;entryX=0;entryY=0.25;entryDx=0;entryDy=0;spacing=16;labelPosition=left;verticalLabelPosition=middle;align=right;verticalAlign=middle;spacingTop=-2;strokeColor=light-dark(#000000,#B2CBFF);" parent="1" source="IY-TwNnu4pYOEqIesNJt-16" target="IY-TwNnu4pYOEqIesNJt-20" edge="1">
          <mxGeometry width="160" relative="1" as="geometry">
            <mxPoint x="530" y="490" as="sourcePoint" />
            <mxPoint x="690" y="490" as="targetPoint" />
            <Array as="points">
              <mxPoint x="540" y="523" />
              <mxPoint x="540" y="600" />
              <mxPoint x="760" y="600" />
              <mxPoint x="760" y="647" />
            </Array>
          </mxGeometry>
        </mxCell>
        <mxCell id="IY-TwNnu4pYOEqIesNJt-74" value="Use" style="endArrow=open;endSize=12;dashed=1;html=1;rounded=0;exitX=0.25;exitY=1;exitDx=0;exitDy=0;entryX=0.25;entryY=0;entryDx=0;entryDy=0;spacing=0;labelPosition=center;verticalLabelPosition=middle;align=center;verticalAlign=middle;spacingTop=0;strokeColor=light-dark(#000000,#B2CBFF);" parent="1" source="IY-TwNnu4pYOEqIesNJt-16" target="IY-TwNnu4pYOEqIesNJt-18" edge="1">
          <mxGeometry width="160" relative="1" as="geometry">
            <mxPoint x="560" y="740" as="sourcePoint" />
            <mxPoint x="980" y="865" as="targetPoint" />
          </mxGeometry>
        </mxCell>
        <mxCell id="IY-TwNnu4pYOEqIesNJt-75" value="" style="rounded=0;orthogonalLoop=1;jettySize=auto;html=1;endArrow=halfCircle;endFill=0;endSize=6;strokeWidth=1;sketch=0;exitX=0;exitY=0.75;exitDx=0;exitDy=0;strokeColor=light-dark(#000000,#F6D32D);jumpStyle=arc;" parent="1" source="IY-TwNnu4pYOEqIesNJt-16" edge="1">
          <mxGeometry relative="1" as="geometry">
            <mxPoint x="170" y="520" as="sourcePoint" />
            <mxPoint x="90" y="670" as="targetPoint" />
            <Array as="points">
              <mxPoint x="90" y="523" />
            </Array>
          </mxGeometry>
        </mxCell>
        <mxCell id="IY-TwNnu4pYOEqIesNJt-76" value="RTC" style="edgeLabel;html=1;align=center;verticalAlign=middle;resizable=0;points=[];" parent="IY-TwNnu4pYOEqIesNJt-75" vertex="1" connectable="0">
          <mxGeometry x="0.3793" relative="1" as="geometry">
            <mxPoint x="-2" y="-13" as="offset" />
          </mxGeometry>
        </mxCell>
        <mxCell id="IY-TwNnu4pYOEqIesNJt-77" value="" style="rounded=0;orthogonalLoop=1;jettySize=auto;html=1;endArrow=oval;endFill=0;sketch=0;sourcePerimeterSpacing=0;targetPerimeterSpacing=0;endSize=10;exitX=0;exitY=0.5;exitDx=0;exitDy=0;strokeColor=light-dark(#000000,#A9B8C7);jumpStyle=arc;" parent="1" source="IY-TwNnu4pYOEqIesNJt-22" edge="1">
          <mxGeometry relative="1" as="geometry">
            <mxPoint x="550" y="1025" as="sourcePoint" />
            <mxPoint x="90" y="670" as="targetPoint" />
            <Array as="points">
              <mxPoint x="90" y="825" />
            </Array>
          </mxGeometry>
        </mxCell>
        <mxCell id="IY-TwNnu4pYOEqIesNJt-79" value="Use" style="endArrow=open;endSize=12;dashed=1;html=1;rounded=0;entryX=1;entryY=0.5;entryDx=0;entryDy=0;exitX=0;exitY=0.5;exitDx=0;exitDy=0;jumpStyle=arc;strokeColor=light-dark(#000000,#FFC5C5);labelPosition=right;verticalLabelPosition=middle;align=left;verticalAlign=middle;spacingTop=-2;spacing=16;" parent="1" source="IY-TwNnu4pYOEqIesNJt-20" target="IY-TwNnu4pYOEqIesNJt-18" edge="1">
          <mxGeometry width="160" relative="1" as="geometry">
            <mxPoint x="1240" y="660" as="sourcePoint" />
            <mxPoint x="640" y="730" as="targetPoint" />
          </mxGeometry>
        </mxCell>
        <mxCell id="IY-TwNnu4pYOEqIesNJt-80" value="" style="rounded=0;orthogonalLoop=1;jettySize=auto;html=1;endArrow=halfCircle;endFill=0;endSize=6;strokeWidth=1;sketch=0;exitX=1;exitY=0.75;exitDx=0;exitDy=0;strokeColor=light-dark(#000000,#F6D32D);jumpStyle=arc;" parent="1" source="IY-TwNnu4pYOEqIesNJt-20" edge="1">
          <mxGeometry relative="1" as="geometry">
            <mxPoint x="1020" y="740" as="sourcePoint" />
            <mxPoint x="1110" y="800" as="targetPoint" />
            <Array as="points">
              <mxPoint x="1110" y="703" />
            </Array>
          </mxGeometry>
        </mxCell>
        <mxCell id="IY-TwNnu4pYOEqIesNJt-81" value="User&lt;br&gt;Regulation" style="edgeLabel;html=1;align=center;verticalAlign=middle;resizable=0;points=[];" parent="IY-TwNnu4pYOEqIesNJt-80" vertex="1" connectable="0">
          <mxGeometry x="0.2773" relative="1" as="geometry">
            <mxPoint y="35" as="offset" />
          </mxGeometry>
        </mxCell>
        <mxCell id="IY-TwNnu4pYOEqIesNJt-82" value="" style="rounded=0;orthogonalLoop=1;jettySize=auto;html=1;endArrow=oval;endFill=0;sketch=0;sourcePerimeterSpacing=0;targetPerimeterSpacing=0;endSize=10;exitX=1;exitY=0.75;exitDx=0;exitDy=0;strokeColor=light-dark(#000000,#A9B8C7);jumpStyle=arc;" parent="1" source="IY-TwNnu4pYOEqIesNJt-22" edge="1">
          <mxGeometry relative="1" as="geometry">
            <mxPoint x="670" y="855" as="sourcePoint" />
            <mxPoint x="1110" y="800" as="targetPoint" />
            <Array as="points">
              <mxPoint x="1110" y="853" />
            </Array>
          </mxGeometry>
        </mxCell>
        <mxCell id="IY-TwNnu4pYOEqIesNJt-84" value="" style="endArrow=open;html=1;rounded=0;exitX=0.25;exitY=1;exitDx=0;exitDy=0;strokeColor=light-dark(#000000, #ffffff);startArrow=open;startFill=0;entryX=0.75;entryY=1;entryDx=0;entryDy=0;endFill=0;jumpStyle=arc;" parent="1" source="IY-TwNnu4pYOEqIesNJt-20" target="IY-TwNnu4pYOEqIesNJt-18" edge="1">
          <mxGeometry width="50" height="50" relative="1" as="geometry">
            <mxPoint x="1210" y="730" as="sourcePoint" />
            <mxPoint x="790" y="730" as="targetPoint" />
            <Array as="points">
              <mxPoint x="835" y="750" />
              <mxPoint x="325" y="750" />
            </Array>
          </mxGeometry>
        </mxCell>
        <mxCell id="IY-TwNnu4pYOEqIesNJt-85" value="" style="endArrow=open;html=1;rounded=0;entryX=0.5;entryY=0;entryDx=0;entryDy=0;strokeColor=light-dark(#000000, #ffffff);startArrow=open;startFill=0;endFill=0;jumpStyle=arc;exitX=0.5;exitY=1;exitDx=0;exitDy=0;" parent="1" source="IY-TwNnu4pYOEqIesNJt-14" target="IY-TwNnu4pYOEqIesNJt-20" edge="1">
          <mxGeometry width="50" height="50" relative="1" as="geometry">
            <mxPoint x="900" y="630" as="sourcePoint" />
            <mxPoint x="900" y="700" as="targetPoint" />
          </mxGeometry>
        </mxCell>
        <mxCell id="IY-TwNnu4pYOEqIesNJt-86" value="" style="rounded=0;orthogonalLoop=1;jettySize=auto;html=1;endArrow=halfCircle;endFill=0;endSize=6;strokeWidth=1;sketch=0;exitX=1;exitY=0;exitDx=0;exitDy=0;strokeColor=light-dark(#000000,#F6D32D);jumpStyle=arc;" parent="1" source="IY-TwNnu4pYOEqIesNJt-22" edge="1">
          <mxGeometry relative="1" as="geometry">
            <mxPoint x="1050" y="630" as="sourcePoint" />
            <mxPoint x="1030" y="638" as="targetPoint" />
            <Array as="points">
              <mxPoint x="1030" y="770" />
            </Array>
          </mxGeometry>
        </mxCell>
        <mxCell id="IY-TwNnu4pYOEqIesNJt-87" value="Receive&lt;br&gt;Data" style="edgeLabel;html=1;align=center;verticalAlign=middle;resizable=0;points=[];" parent="IY-TwNnu4pYOEqIesNJt-86" vertex="1" connectable="0">
          <mxGeometry x="0.2773" relative="1" as="geometry">
            <mxPoint as="offset" />
          </mxGeometry>
        </mxCell>
        <mxCell id="IY-TwNnu4pYOEqIesNJt-88" value="" style="rounded=0;orthogonalLoop=1;jettySize=auto;html=1;endArrow=oval;endFill=0;sketch=0;sourcePerimeterSpacing=0;targetPerimeterSpacing=0;endSize=10;strokeColor=light-dark(#000000,#A9B8C7);exitX=1.004;exitY=0.727;exitDx=0;exitDy=0;exitPerimeter=0;" parent="1" source="IY-TwNnu4pYOEqIesNJt-14" edge="1">
          <mxGeometry relative="1" as="geometry">
            <mxPoint x="984" y="542" as="sourcePoint" />
            <mxPoint x="1030" y="639" as="targetPoint" />
            <Array as="points">
              <mxPoint x="1031" y="520" />
            </Array>
          </mxGeometry>
        </mxCell>
        <mxCell id="IY-TwNnu4pYOEqIesNJt-89" value="" style="rounded=0;orthogonalLoop=1;jettySize=auto;html=1;endArrow=oval;endFill=0;sketch=0;sourcePerimeterSpacing=0;targetPerimeterSpacing=0;endSize=10;exitX=0;exitY=0.75;exitDx=0;exitDy=0;strokeColor=light-dark(#000000,#A9B8C7);jumpStyle=arc;" parent="1" source="IY-TwNnu4pYOEqIesNJt-18" edge="1">
          <mxGeometry relative="1" as="geometry">
            <mxPoint x="610" y="1008" as="sourcePoint" />
            <mxPoint x="60" y="357" as="targetPoint" />
            <Array as="points">
              <mxPoint x="60" y="703" />
            </Array>
          </mxGeometry>
        </mxCell>
        <mxCell id="IY-TwNnu4pYOEqIesNJt-90" value="" style="rounded=0;orthogonalLoop=1;jettySize=auto;html=1;endArrow=halfCircle;endFill=0;endSize=6;strokeWidth=1;sketch=0;exitX=0;exitY=0.25;exitDx=0;exitDy=0;strokeColor=light-dark(#000000,#F6D32D);" parent="1" source="IY-TwNnu4pYOEqIesNJt-10" edge="1">
          <mxGeometry relative="1" as="geometry">
            <mxPoint x="130" y="140" as="sourcePoint" />
            <mxPoint x="60" y="358" as="targetPoint" />
            <Array as="points">
              <mxPoint x="60" y="138" />
            </Array>
          </mxGeometry>
        </mxCell>
        <mxCell id="IY-TwNnu4pYOEqIesNJt-91" value="Update&lt;br&gt;UI" style="edgeLabel;html=1;align=center;verticalAlign=middle;resizable=0;points=[];" parent="IY-TwNnu4pYOEqIesNJt-90" vertex="1" connectable="0">
          <mxGeometry x="0.3793" relative="1" as="geometry">
            <mxPoint x="-2" y="14" as="offset" />
          </mxGeometry>
        </mxCell>
        <mxCell id="IY-TwNnu4pYOEqIesNJt-92" value="&lt;font style=&quot;font-size: 18px;&quot;&gt;Local Storage/Filesystem&lt;/font&gt;" style="ellipse;whiteSpace=wrap;html=1;aspect=fixed;" parent="1" vertex="1">
          <mxGeometry x="225" y="940" width="110" height="110" as="geometry" />
        </mxCell>
        <mxCell id="IY-TwNnu4pYOEqIesNJt-93" value="" style="shape=link;html=1;rounded=0;exitX=0.5;exitY=1;exitDx=0;exitDy=0;entryX=0.5;entryY=0;entryDx=0;entryDy=0;" parent="1" source="IY-TwNnu4pYOEqIesNJt-94" target="IY-TwNnu4pYOEqIesNJt-92" edge="1">
          <mxGeometry width="100" relative="1" as="geometry">
            <mxPoint x="460" y="660" as="sourcePoint" />
            <mxPoint x="560" y="660" as="targetPoint" />
          </mxGeometry>
        </mxCell>
        <mxCell id="IY-TwNnu4pYOEqIesNJt-95" value="" style="shape=link;html=1;rounded=0;exitX=0.5;exitY=1;exitDx=0;exitDy=0;entryX=0.5;entryY=0;entryDx=0;entryDy=0;" parent="1" source="IY-TwNnu4pYOEqIesNJt-18" target="IY-TwNnu4pYOEqIesNJt-94" edge="1">
          <mxGeometry width="100" relative="1" as="geometry">
            <mxPoint x="280" y="730" as="sourcePoint" />
            <mxPoint x="280" y="940" as="targetPoint" />
          </mxGeometry>
        </mxCell>
        <mxCell id="IY-TwNnu4pYOEqIesNJt-94" value="" style="rounded=0;whiteSpace=wrap;html=1;" parent="1" vertex="1">
          <mxGeometry x="270" y="910" width="20" height="20" as="geometry" />
        </mxCell>
        <mxCell id="IY-TwNnu4pYOEqIesNJt-96" value="Use" style="endArrow=open;endSize=12;dashed=1;html=1;rounded=0;exitX=0;exitY=0.75;exitDx=0;exitDy=0;entryX=0;entryY=0.25;entryDx=0;entryDy=0;strokeColor=light-dark(#000000,#613583);jumpStyle=arc;" parent="1" source="IY-TwNnu4pYOEqIesNJt-22" target="IY-TwNnu4pYOEqIesNJt-5" edge="1">
          <mxGeometry width="160" relative="1" as="geometry">
            <mxPoint x="570" y="540" as="sourcePoint" />
            <mxPoint x="730" y="540" as="targetPoint" />
            <Array as="points">
              <mxPoint x="30" y="853" />
              <mxPoint x="30" y="288" />
            </Array>
          </mxGeometry>
        </mxCell>
        <mxCell id="IY-TwNnu4pYOEqIesNJt-97" value="Use" style="endArrow=open;endSize=12;dashed=1;html=1;rounded=0;exitX=0;exitY=0;exitDx=0;exitDy=0;entryX=0.25;entryY=1;entryDx=0;entryDy=0;strokeColor=light-dark(#000000,#613583);jumpStyle=arc;" parent="1" source="IY-TwNnu4pYOEqIesNJt-22" target="IY-TwNnu4pYOEqIesNJt-18" edge="1">
          <mxGeometry width="160" relative="1" as="geometry">
            <mxPoint x="890" y="1465" as="sourcePoint" />
            <mxPoint x="590" y="900" as="targetPoint" />
            <Array as="points">
              <mxPoint x="235" y="770" />
            </Array>
          </mxGeometry>
        </mxCell>
        <mxCell id="IY-TwNnu4pYOEqIesNJt-98" value="&lt;font style=&quot;font-size: 24px;&quot;&gt;Legend&lt;/font&gt;" style="rounded=0;whiteSpace=wrap;html=1;verticalAlign=top;fillColor=none;" parent="1" vertex="1">
          <mxGeometry x="1240" y="50" width="200" height="340" as="geometry" />
        </mxCell>
        <mxCell id="IY-TwNnu4pYOEqIesNJt-99" value="Composition" style="rounded=0;whiteSpace=wrap;html=1;spacing=2;spacingTop=-2;" parent="1" vertex="1">
          <mxGeometry x="1250" y="90" width="110" height="30" as="geometry" />
        </mxCell>
        <mxCell id="IY-TwNnu4pYOEqIesNJt-101" value="Association" style="rounded=0;whiteSpace=wrap;html=1;spacingTop=-2;" parent="1" vertex="1">
          <mxGeometry x="1250" y="120" width="110" height="30" as="geometry" />
        </mxCell>
        <mxCell id="IY-TwNnu4pYOEqIesNJt-102" value="Dependency" style="rounded=0;whiteSpace=wrap;html=1;spacingTop=-2;" parent="1" vertex="1">
          <mxGeometry x="1250" y="150" width="110" height="30" as="geometry" />
        </mxCell>
        <mxCell id="IY-TwNnu4pYOEqIesNJt-103" value="Interface Connection" style="rounded=0;whiteSpace=wrap;html=1;spacingTop=-2;" parent="1" vertex="1">
          <mxGeometry x="1250" y="180" width="110" height="30" as="geometry" />
        </mxCell>
        <mxCell id="IY-TwNnu4pYOEqIesNJt-104" value="Provided Interface" style="rounded=0;whiteSpace=wrap;html=1;spacingTop=-2;" parent="1" vertex="1">
          <mxGeometry x="1250" y="210" width="110" height="30" as="geometry" />
        </mxCell>
        <mxCell id="IY-TwNnu4pYOEqIesNJt-105" value="Required Interface" style="rounded=0;whiteSpace=wrap;html=1;spacingTop=-2;" parent="1" vertex="1">
          <mxGeometry x="1250" y="240" width="110" height="30" as="geometry" />
        </mxCell>
        <mxCell id="IY-TwNnu4pYOEqIesNJt-107" value="External System Connection" style="rounded=0;whiteSpace=wrap;html=1;spacingTop=-2;" parent="1" vertex="1">
          <mxGeometry x="1250" y="270" width="110" height="30" as="geometry" />
        </mxCell>
        <mxCell id="IY-TwNnu4pYOEqIesNJt-108" value="" style="endArrow=diamondThin;endFill=1;endSize=24;html=1;rounded=0;fillColor=#a0522d;strokeColor=light-dark(#6D1F00, #ffffff);" parent="1" edge="1">
          <mxGeometry width="160" relative="1" as="geometry">
            <mxPoint x="1370" y="104" as="sourcePoint" />
            <mxPoint x="1430" y="104" as="targetPoint" />
          </mxGeometry>
        </mxCell>
        <mxCell id="IY-TwNnu4pYOEqIesNJt-109" value="" style="endArrow=open;html=1;rounded=0;strokeColor=light-dark(#000000, #ffffff);startArrow=open;startFill=0;endFill=0;jumpStyle=arc;" parent="1" edge="1">
          <mxGeometry width="50" height="50" relative="1" as="geometry">
            <mxPoint x="1430" y="135" as="sourcePoint" />
            <mxPoint x="1370" y="135" as="targetPoint" />
          </mxGeometry>
        </mxCell>
        <mxCell id="IY-TwNnu4pYOEqIesNJt-110" value="Use" style="endArrow=open;endSize=12;dashed=1;html=1;rounded=0;spacingTop=-2;" parent="1" edge="1">
          <mxGeometry width="160" relative="1" as="geometry">
            <mxPoint x="1370" y="163" as="sourcePoint" />
            <mxPoint x="1430" y="163" as="targetPoint" />
          </mxGeometry>
        </mxCell>
        <mxCell id="IY-TwNnu4pYOEqIesNJt-111" value="" style="rounded=0;orthogonalLoop=1;jettySize=auto;html=1;endArrow=halfCircle;endFill=0;endSize=6;strokeWidth=1;sketch=0;" parent="1" target="IY-TwNnu4pYOEqIesNJt-113" edge="1">
          <mxGeometry relative="1" as="geometry">
            <mxPoint x="1430" y="195" as="sourcePoint" />
          </mxGeometry>
        </mxCell>
        <mxCell id="IY-TwNnu4pYOEqIesNJt-112" value="" style="rounded=0;orthogonalLoop=1;jettySize=auto;html=1;endArrow=oval;endFill=0;sketch=0;sourcePerimeterSpacing=0;targetPerimeterSpacing=0;endSize=10;" parent="1" target="IY-TwNnu4pYOEqIesNJt-113" edge="1">
          <mxGeometry relative="1" as="geometry">
            <mxPoint x="1370" y="195" as="sourcePoint" />
          </mxGeometry>
        </mxCell>
        <mxCell id="IY-TwNnu4pYOEqIesNJt-113" value="" style="ellipse;whiteSpace=wrap;html=1;align=center;aspect=fixed;fillColor=none;strokeColor=none;resizable=0;perimeter=centerPerimeter;rotatable=0;allowArrows=0;points=[];outlineConnect=1;" parent="1" vertex="1">
          <mxGeometry x="1395" y="190" width="10" height="10" as="geometry" />
        </mxCell>
        <mxCell id="IY-TwNnu4pYOEqIesNJt-114" value="" style="rounded=0;orthogonalLoop=1;jettySize=auto;html=1;endArrow=halfCircle;endFill=0;endSize=6;strokeWidth=1;sketch=0;fontSize=12;curved=1;" parent="1" edge="1">
          <mxGeometry relative="1" as="geometry">
            <mxPoint x="1430" y="225" as="sourcePoint" />
            <mxPoint x="1370" y="224.92" as="targetPoint" />
          </mxGeometry>
        </mxCell>
        <mxCell id="IY-TwNnu4pYOEqIesNJt-115" value="" style="ellipse;whiteSpace=wrap;html=1;align=center;aspect=fixed;fillColor=none;strokeColor=none;resizable=0;perimeter=centerPerimeter;rotatable=0;allowArrows=0;points=[];outlineConnect=1;" parent="1" vertex="1">
          <mxGeometry x="1390" y="220" width="10" height="10" as="geometry" />
        </mxCell>
        <mxCell id="IY-TwNnu4pYOEqIesNJt-117" value="" style="rounded=0;orthogonalLoop=1;jettySize=auto;html=1;endArrow=oval;endFill=0;sketch=0;sourcePerimeterSpacing=0;targetPerimeterSpacing=0;endSize=10;" parent="1" edge="1">
          <mxGeometry relative="1" as="geometry">
            <mxPoint x="1370" y="254.92000000000002" as="sourcePoint" />
            <mxPoint x="1425" y="255" as="targetPoint" />
          </mxGeometry>
        </mxCell>
        <mxCell id="IY-TwNnu4pYOEqIesNJt-118" value="" style="ellipse;whiteSpace=wrap;html=1;align=center;aspect=fixed;fillColor=none;strokeColor=none;resizable=0;perimeter=centerPerimeter;rotatable=0;allowArrows=0;points=[];outlineConnect=1;" parent="1" vertex="1">
          <mxGeometry x="1395" y="230" width="10" height="10" as="geometry" />
        </mxCell>
        <mxCell id="IY-TwNnu4pYOEqIesNJt-119" value="" style="shape=link;html=1;rounded=0;" parent="1" edge="1">
          <mxGeometry width="100" relative="1" as="geometry">
            <mxPoint x="1370" y="285" as="sourcePoint" />
            <mxPoint x="1430" y="284.92" as="targetPoint" />
          </mxGeometry>
        </mxCell>
        <mxCell id="IY-TwNnu4pYOEqIesNJt-120" value="Colours are used to show were a line originated from, if white then that means the relationship is bidirectional" style="rounded=0;whiteSpace=wrap;html=1;spacingTop=-2;" parent="1" vertex="1">
          <mxGeometry x="1250" y="310" width="180" height="70" as="geometry" />
        </mxCell>
        <mxCell id="LdIqDrg1HJKvF_CIrr4F-3" value="&lt;div&gt;&lt;font style=&quot;font-size: 16px;&quot;&gt;«Component»&lt;/font&gt;&lt;/div&gt;&lt;font style=&quot;font-size: 16px;&quot;&gt;&lt;b&gt;&lt;font&gt;Authentication&lt;/font&gt;&lt;/b&gt;&lt;/font&gt;" style="html=1;dropTarget=0;whiteSpace=wrap;fillColor=light-dark(#1ba1e2, #f6d32d);fontColor=#ffffff;strokeColor=light-dark(default, #f6d32d);" vertex="1" parent="1">
          <mxGeometry x="-840" y="360" width="200" height="120" as="geometry" />
        </mxCell>
        <mxCell id="LdIqDrg1HJKvF_CIrr4F-4" value="" style="shape=module;jettyWidth=8;jettyHeight=4;" vertex="1" parent="LdIqDrg1HJKvF_CIrr4F-3">
          <mxGeometry x="1" width="20" height="20" relative="1" as="geometry">
            <mxPoint x="-27" y="7" as="offset" />
          </mxGeometry>
        </mxCell>
        <mxCell id="LdIqDrg1HJKvF_CIrr4F-5" value="" style="ellipse;whiteSpace=wrap;html=1;align=center;aspect=fixed;fillColor=none;strokeColor=none;resizable=0;perimeter=centerPerimeter;rotatable=0;allowArrows=0;points=[];outlineConnect=1;" vertex="1" parent="1">
          <mxGeometry x="-930" y="475" width="10" height="10" as="geometry" />
        </mxCell>
        <mxCell id="LdIqDrg1HJKvF_CIrr4F-6" value="&lt;div&gt;&lt;font style=&quot;font-size: 16px;&quot;&gt;«Component»&lt;/font&gt;&lt;/div&gt;&lt;font style=&quot;font-size: 16px;&quot;&gt;&lt;b&gt;&lt;font&gt;Application Shell&lt;/font&gt;&lt;/b&gt;&lt;/font&gt;" style="html=1;dropTarget=0;whiteSpace=wrap;fillColor=#a0522d;strokeColor=#6D1F00;fontColor=#ffffff;" vertex="1" parent="1">
          <mxGeometry x="-840" y="40" width="200" height="120" as="geometry" />
        </mxCell>
        <mxCell id="LdIqDrg1HJKvF_CIrr4F-7" value="" style="shape=module;jettyWidth=8;jettyHeight=4;" vertex="1" parent="LdIqDrg1HJKvF_CIrr4F-6">
          <mxGeometry x="1" width="20" height="20" relative="1" as="geometry">
            <mxPoint x="-27" y="7" as="offset" />
          </mxGeometry>
        </mxCell>
        <mxCell id="LdIqDrg1HJKvF_CIrr4F-8" value="&lt;div&gt;&lt;font style=&quot;font-size: 16px;&quot;&gt;«Component»&lt;/font&gt;&lt;/div&gt;&lt;font style=&quot;font-size: 16px;&quot;&gt;&lt;b&gt;&lt;font&gt;Server Management&lt;/font&gt;&lt;/b&gt;&lt;/font&gt;" style="html=1;dropTarget=0;whiteSpace=wrap;fillColor=#008a00;fontColor=#ffffff;strokeColor=#005700;" vertex="1" parent="1">
          <mxGeometry x="-440" y="760" width="200" height="120" as="geometry" />
        </mxCell>
        <mxCell id="LdIqDrg1HJKvF_CIrr4F-9" value="" style="shape=module;jettyWidth=8;jettyHeight=4;" vertex="1" parent="LdIqDrg1HJKvF_CIrr4F-8">
          <mxGeometry x="1" width="20" height="20" relative="1" as="geometry">
            <mxPoint x="-27" y="7" as="offset" />
          </mxGeometry>
        </mxCell>
        <mxCell id="LdIqDrg1HJKvF_CIrr4F-10" value="&lt;div&gt;&lt;font style=&quot;font-size: 16px;&quot;&gt;«Component»&lt;/font&gt;&lt;/div&gt;&lt;font style=&quot;font-size: 16px;&quot;&gt;&lt;b&gt;&lt;font&gt;Communication&lt;/font&gt;&lt;/b&gt;&lt;/font&gt;" style="html=1;dropTarget=0;whiteSpace=wrap;fillColor=light-dark(#e51400, #e01b24);fontColor=#ffffff;strokeColor=light-dark(#B20000, #ed333b);" vertex="1" parent="1">
          <mxGeometry x="-440" y="480" width="200" height="120" as="geometry" />
        </mxCell>
        <mxCell id="LdIqDrg1HJKvF_CIrr4F-11" value="" style="shape=module;jettyWidth=8;jettyHeight=4;" vertex="1" parent="LdIqDrg1HJKvF_CIrr4F-10">
          <mxGeometry x="1" width="20" height="20" relative="1" as="geometry">
            <mxPoint x="-27" y="7" as="offset" />
          </mxGeometry>
        </mxCell>
        <mxCell id="LdIqDrg1HJKvF_CIrr4F-12" value="&lt;div&gt;&lt;font style=&quot;font-size: 16px;&quot;&gt;«Component»&lt;/font&gt;&lt;/div&gt;&lt;font style=&quot;font-size: 16px;&quot;&gt;&lt;b&gt;&lt;font&gt;Real-Time Media&lt;/font&gt;&lt;/b&gt;&lt;/font&gt;" style="html=1;dropTarget=0;whiteSpace=wrap;fillColor=#0050ef;fontColor=#ffffff;strokeColor=#001DBC;" vertex="1" parent="1">
          <mxGeometry x="-1240" y="480" width="200" height="120" as="geometry" />
        </mxCell>
        <mxCell id="LdIqDrg1HJKvF_CIrr4F-13" value="" style="shape=module;jettyWidth=8;jettyHeight=4;" vertex="1" parent="LdIqDrg1HJKvF_CIrr4F-12">
          <mxGeometry x="1" width="20" height="20" relative="1" as="geometry">
            <mxPoint x="-27" y="7" as="offset" />
          </mxGeometry>
        </mxCell>
        <mxCell id="LdIqDrg1HJKvF_CIrr4F-14" value="&lt;div&gt;&lt;font style=&quot;font-size: 16px;&quot;&gt;«Component»&lt;/font&gt;&lt;/div&gt;&lt;font style=&quot;font-size: 16px;&quot;&gt;&lt;b&gt;&lt;font&gt;Data Management&lt;/font&gt;&lt;/b&gt;&lt;/font&gt;" style="html=1;dropTarget=0;whiteSpace=wrap;fillColor=#6a00ff;fontColor=#ffffff;strokeColor=#3700CC;" vertex="1" parent="1">
          <mxGeometry x="-1160" y="200" width="200" height="120" as="geometry" />
        </mxCell>
        <mxCell id="LdIqDrg1HJKvF_CIrr4F-15" value="" style="shape=module;jettyWidth=8;jettyHeight=4;" vertex="1" parent="LdIqDrg1HJKvF_CIrr4F-14">
          <mxGeometry x="1" width="20" height="20" relative="1" as="geometry">
            <mxPoint x="-27" y="7" as="offset" />
          </mxGeometry>
        </mxCell>
        <mxCell id="LdIqDrg1HJKvF_CIrr4F-16" value="&lt;div&gt;&lt;font style=&quot;font-size: 16px;&quot;&gt;«Component»&lt;/font&gt;&lt;/div&gt;&lt;font style=&quot;font-size: 16px;&quot;&gt;&lt;b&gt;&lt;font&gt;User Management&lt;/font&gt;&lt;/b&gt;&lt;/font&gt;" style="html=1;dropTarget=0;whiteSpace=wrap;fillColor=#a20025;fontColor=#ffffff;strokeColor=#6F0000;" vertex="1" parent="1">
          <mxGeometry x="-520" y="200" width="200" height="120" as="geometry" />
        </mxCell>
        <mxCell id="LdIqDrg1HJKvF_CIrr4F-17" value="" style="shape=module;jettyWidth=8;jettyHeight=4;" vertex="1" parent="LdIqDrg1HJKvF_CIrr4F-16">
          <mxGeometry x="1" width="20" height="20" relative="1" as="geometry">
            <mxPoint x="-27" y="7" as="offset" />
          </mxGeometry>
        </mxCell>
        <mxCell id="LdIqDrg1HJKvF_CIrr4F-18" value="&lt;div&gt;&lt;font style=&quot;font-size: 16px;&quot;&gt;«Component»&lt;/font&gt;&lt;/div&gt;&lt;font style=&quot;font-size: 16px;&quot;&gt;&lt;b&gt;&lt;font&gt;Network&lt;/font&gt;&lt;/b&gt;&lt;/font&gt;" style="html=1;dropTarget=0;whiteSpace=wrap;fillColor=light-dark(#647687, #613583);strokeColor=light-dark(#314354, #613583);fontColor=#ffffff;" vertex="1" parent="1">
          <mxGeometry x="-840" y="680" width="200" height="120" as="geometry" />
        </mxCell>
        <mxCell id="LdIqDrg1HJKvF_CIrr4F-19" value="" style="shape=module;jettyWidth=8;jettyHeight=4;" vertex="1" parent="LdIqDrg1HJKvF_CIrr4F-18">
          <mxGeometry x="1" width="20" height="20" relative="1" as="geometry">
            <mxPoint x="-27" y="7" as="offset" />
          </mxGeometry>
        </mxCell>
        <mxCell id="LdIqDrg1HJKvF_CIrr4F-21" value="&lt;font style=&quot;font-size: 18px;&quot;&gt;Backend&lt;/font&gt;" style="ellipse;whiteSpace=wrap;html=1;aspect=fixed;" vertex="1" parent="1">
          <mxGeometry x="-795" y="810" width="110" height="110" as="geometry" />
        </mxCell>
        <mxCell id="LdIqDrg1HJKvF_CIrr4F-35" value="" style="ellipse;whiteSpace=wrap;html=1;align=center;aspect=fixed;fillColor=none;strokeColor=none;resizable=0;perimeter=centerPerimeter;rotatable=0;allowArrows=0;points=[];outlineConnect=1;" vertex="1" parent="1">
          <mxGeometry x="-575" y="825" width="10" height="10" as="geometry" />
        </mxCell>
        <mxCell id="LdIqDrg1HJKvF_CIrr4F-70" value="&lt;font style=&quot;font-size: 18px;&quot;&gt;Local Storage/Filesystem&lt;/font&gt;" style="ellipse;whiteSpace=wrap;html=1;aspect=fixed;" vertex="1" parent="1">
          <mxGeometry x="-1135" y="1275" width="110" height="110" as="geometry" />
        </mxCell>
        <mxCell id="LdIqDrg1HJKvF_CIrr4F-78" value="&lt;div&gt;&lt;font style=&quot;font-size: 16px;&quot;&gt;«Component»&lt;/font&gt;&lt;/div&gt;&lt;font style=&quot;font-size: 16px;&quot;&gt;&lt;b&gt;&lt;font&gt;Server Health&lt;/font&gt;&lt;/b&gt;&lt;/font&gt;" style="html=1;dropTarget=0;whiteSpace=wrap;fillColor=#f0a30a;fontColor=#000000;strokeColor=#BD7000;" vertex="1" parent="1">
          <mxGeometry x="-1240" y="760" width="200" height="120" as="geometry" />
        </mxCell>
        <mxCell id="LdIqDrg1HJKvF_CIrr4F-79" value="" style="shape=module;jettyWidth=8;jettyHeight=4;" vertex="1" parent="LdIqDrg1HJKvF_CIrr4F-78">
          <mxGeometry x="1" width="20" height="20" relative="1" as="geometry">
            <mxPoint x="-27" y="7" as="offset" />
          </mxGeometry>
        </mxCell>
        <mxCell id="LdIqDrg1HJKvF_CIrr4F-80" value="&lt;div&gt;&lt;font style=&quot;font-size: 16px;&quot;&gt;«Component»&lt;/font&gt;&lt;/div&gt;&lt;font style=&quot;font-size: 16px;&quot;&gt;&lt;b&gt;&lt;font&gt;Media&lt;/font&gt;&lt;/b&gt;&lt;/font&gt;" style="html=1;dropTarget=0;whiteSpace=wrap;fillColor=light-dark(#60A917,#305909);fontColor=#ffffff;strokeColor=light-dark(#2D7600,#385924);" vertex="1" parent="1">
          <mxGeometry x="-1160" y="1040" width="200" height="120" as="geometry" />
        </mxCell>
        <mxCell id="LdIqDrg1HJKvF_CIrr4F-81" value="" style="shape=module;jettyWidth=8;jettyHeight=4;" vertex="1" parent="LdIqDrg1HJKvF_CIrr4F-80">
          <mxGeometry x="1" width="20" height="20" relative="1" as="geometry">
            <mxPoint x="-27" y="7" as="offset" />
          </mxGeometry>
        </mxCell>
        <mxCell id="LdIqDrg1HJKvF_CIrr4F-82" value="" style="endArrow=diamondThin;endFill=1;endSize=24;html=1;rounded=0;exitX=0;exitY=0.5;exitDx=0;exitDy=0;fillColor=#a0522d;strokeColor=#6D1F00;entryX=0.25;entryY=0;entryDx=0;entryDy=0;" edge="1" parent="1" source="LdIqDrg1HJKvF_CIrr4F-6" target="LdIqDrg1HJKvF_CIrr4F-12">
          <mxGeometry width="160" relative="1" as="geometry">
            <mxPoint x="-850" y="665" as="sourcePoint" />
            <mxPoint x="-970" y="590" as="targetPoint" />
            <Array as="points">
              <mxPoint x="-1190" y="100" />
            </Array>
          </mxGeometry>
        </mxCell>
        <mxCell id="LdIqDrg1HJKvF_CIrr4F-83" value="" style="endArrow=diamondThin;endFill=1;endSize=24;html=1;rounded=0;exitX=1;exitY=0.5;exitDx=0;exitDy=0;fillColor=#a0522d;strokeColor=#6D1F00;entryX=0.75;entryY=0;entryDx=0;entryDy=0;" edge="1" parent="1" source="LdIqDrg1HJKvF_CIrr4F-6" target="LdIqDrg1HJKvF_CIrr4F-10">
          <mxGeometry width="160" relative="1" as="geometry">
            <mxPoint x="-470" y="690" as="sourcePoint" />
            <mxPoint x="-670" y="600" as="targetPoint" />
            <Array as="points">
              <mxPoint x="-290" y="100" />
            </Array>
          </mxGeometry>
        </mxCell>
        <mxCell id="LdIqDrg1HJKvF_CIrr4F-84" value="" style="endArrow=diamondThin;endFill=1;endSize=24;html=1;rounded=0;exitX=1;exitY=0.5;exitDx=0;exitDy=0;fillColor=#a0522d;strokeColor=#6D1F00;entryX=0.25;entryY=0;entryDx=0;entryDy=0;" edge="1" parent="1" source="LdIqDrg1HJKvF_CIrr4F-6" target="LdIqDrg1HJKvF_CIrr4F-16">
          <mxGeometry width="160" relative="1" as="geometry">
            <mxPoint x="-530" y="830" as="sourcePoint" />
            <mxPoint x="-330" y="740" as="targetPoint" />
            <Array as="points">
              <mxPoint x="-470" y="100" />
            </Array>
          </mxGeometry>
        </mxCell>
        <mxCell id="LdIqDrg1HJKvF_CIrr4F-85" value="" style="endArrow=diamondThin;endFill=1;endSize=24;html=1;rounded=0;exitX=0;exitY=0.5;exitDx=0;exitDy=0;fillColor=#a0522d;strokeColor=#6D1F00;entryX=0.5;entryY=0;entryDx=0;entryDy=0;" edge="1" parent="1" source="LdIqDrg1HJKvF_CIrr4F-6" target="LdIqDrg1HJKvF_CIrr4F-14">
          <mxGeometry width="160" relative="1" as="geometry">
            <mxPoint x="-670" y="750" as="sourcePoint" />
            <mxPoint x="-870" y="660" as="targetPoint" />
            <Array as="points">
              <mxPoint x="-1060" y="100" />
            </Array>
          </mxGeometry>
        </mxCell>
        <mxCell id="LdIqDrg1HJKvF_CIrr4F-86" value="" style="endArrow=diamondThin;endFill=1;endSize=24;html=1;rounded=0;exitX=0;exitY=0.5;exitDx=0;exitDy=0;fillColor=#a0522d;strokeColor=#6D1F00;entryX=0;entryY=0.25;entryDx=0;entryDy=0;" edge="1" parent="1" source="LdIqDrg1HJKvF_CIrr4F-6" target="LdIqDrg1HJKvF_CIrr4F-78">
          <mxGeometry width="160" relative="1" as="geometry">
            <mxPoint x="-905" y="1180" as="sourcePoint" />
            <mxPoint x="-1025" y="810" as="targetPoint" />
            <Array as="points">
              <mxPoint x="-1280" y="100" />
              <mxPoint x="-1280" y="790" />
            </Array>
          </mxGeometry>
        </mxCell>
        <mxCell id="LdIqDrg1HJKvF_CIrr4F-87" value="" style="endArrow=diamondThin;endFill=1;endSize=24;html=1;rounded=0;exitX=0;exitY=0.5;exitDx=0;exitDy=0;fillColor=#a0522d;strokeColor=#6D1F00;entryX=0;entryY=0.25;entryDx=0;entryDy=0;" edge="1" parent="1" source="LdIqDrg1HJKvF_CIrr4F-6" target="LdIqDrg1HJKvF_CIrr4F-80">
          <mxGeometry width="160" relative="1" as="geometry">
            <mxPoint x="-760" y="970" as="sourcePoint" />
            <mxPoint x="-960" y="1100" as="targetPoint" />
            <Array as="points">
              <mxPoint x="-1280" y="100" />
              <mxPoint x="-1280" y="1070" />
            </Array>
          </mxGeometry>
        </mxCell>
        <mxCell id="LdIqDrg1HJKvF_CIrr4F-88" value="" style="endArrow=diamondThin;endFill=1;endSize=24;html=1;rounded=0;exitX=1;exitY=0.5;exitDx=0;exitDy=0;fillColor=#a0522d;strokeColor=#6D1F00;entryX=1;entryY=0.25;entryDx=0;entryDy=0;" edge="1" parent="1" source="LdIqDrg1HJKvF_CIrr4F-6" target="LdIqDrg1HJKvF_CIrr4F-8">
          <mxGeometry width="160" relative="1" as="geometry">
            <mxPoint x="-340" y="750" as="sourcePoint" />
            <mxPoint x="-540" y="880" as="targetPoint" />
            <Array as="points">
              <mxPoint x="-200" y="100" />
              <mxPoint x="-200" y="790" />
            </Array>
          </mxGeometry>
        </mxCell>
        <mxCell id="LdIqDrg1HJKvF_CIrr4F-90" value="Use" style="endArrow=open;endSize=12;dashed=1;html=1;rounded=0;exitX=0;exitY=0.75;exitDx=0;exitDy=0;fillColor=#a0522d;strokeColor=light-dark(#6D1F00,#ED333B);jumpStyle=arc;labelPosition=center;verticalLabelPosition=bottom;align=center;verticalAlign=top;startArrow=none;startFill=0;startSize=12;entryX=1;entryY=0.25;entryDx=0;entryDy=0;" edge="1" parent="1" source="LdIqDrg1HJKvF_CIrr4F-10" target="LdIqDrg1HJKvF_CIrr4F-18">
          <mxGeometry width="160" relative="1" as="geometry">
            <mxPoint x="-190" y="620" as="sourcePoint" />
            <mxPoint x="-420" y="680" as="targetPoint" />
            <Array as="points">
              <mxPoint x="-580" y="570" />
              <mxPoint x="-580" y="710" />
            </Array>
          </mxGeometry>
        </mxCell>
        <mxCell id="LdIqDrg1HJKvF_CIrr4F-91" value="" style="rounded=0;orthogonalLoop=1;jettySize=auto;html=1;endArrow=halfCircle;endFill=0;endSize=6;strokeWidth=1;sketch=0;exitX=0.5;exitY=1;exitDx=0;exitDy=0;strokeColor=light-dark(#000000,#F6D32D);jumpStyle=arc;" edge="1" parent="1" source="LdIqDrg1HJKvF_CIrr4F-3">
          <mxGeometry relative="1" as="geometry">
            <mxPoint x="-460" y="441" as="sourcePoint" />
            <mxPoint x="-740" y="580" as="targetPoint" />
          </mxGeometry>
        </mxCell>
        <mxCell id="LdIqDrg1HJKvF_CIrr4F-92" value="Server&lt;br&gt;Access" style="edgeLabel;html=1;align=center;verticalAlign=middle;resizable=0;points=[];" vertex="1" connectable="0" parent="LdIqDrg1HJKvF_CIrr4F-91">
          <mxGeometry x="0.3793" relative="1" as="geometry">
            <mxPoint y="-12" as="offset" />
          </mxGeometry>
        </mxCell>
        <mxCell id="LdIqDrg1HJKvF_CIrr4F-93" value="" style="rounded=0;orthogonalLoop=1;jettySize=auto;html=1;endArrow=oval;endFill=0;sketch=0;sourcePerimeterSpacing=0;targetPerimeterSpacing=0;endSize=10;exitX=0.5;exitY=0;exitDx=0;exitDy=0;strokeColor=light-dark(#000000,#A9B8C7);jumpStyle=arc;" edge="1" parent="1" source="LdIqDrg1HJKvF_CIrr4F-18">
          <mxGeometry relative="1" as="geometry">
            <mxPoint x="320" y="858" as="sourcePoint" />
            <mxPoint x="-740" y="580" as="targetPoint" />
          </mxGeometry>
        </mxCell>
        <mxCell id="LdIqDrg1HJKvF_CIrr4F-94" value="Use" style="endArrow=open;endSize=12;dashed=1;html=1;rounded=0;exitX=1;exitY=0.25;exitDx=0;exitDy=0;fillColor=#a0522d;strokeColor=light-dark(#6D1F00,#F6D32D);jumpStyle=arc;labelPosition=center;verticalLabelPosition=bottom;align=center;verticalAlign=top;startArrow=none;startFill=0;startSize=12;entryX=0.25;entryY=1;entryDx=0;entryDy=0;" edge="1" parent="1" source="LdIqDrg1HJKvF_CIrr4F-3" target="LdIqDrg1HJKvF_CIrr4F-16">
          <mxGeometry width="160" relative="1" as="geometry">
            <mxPoint x="-260" y="800" as="sourcePoint" />
            <mxPoint x="-620" y="520" as="targetPoint" />
            <Array as="points">
              <mxPoint x="-470" y="390" />
            </Array>
          </mxGeometry>
        </mxCell>
        <mxCell id="LdIqDrg1HJKvF_CIrr4F-95" value="Use" style="endArrow=open;endSize=12;dashed=1;html=1;rounded=0;exitX=0;exitY=0.25;exitDx=0;exitDy=0;fillColor=#a0522d;strokeColor=light-dark(#6D1F00,#F6D32D);jumpStyle=arc;labelPosition=center;verticalLabelPosition=bottom;align=center;verticalAlign=top;startArrow=none;startFill=0;startSize=12;entryX=0.75;entryY=1;entryDx=0;entryDy=0;" edge="1" parent="1" source="LdIqDrg1HJKvF_CIrr4F-3" target="LdIqDrg1HJKvF_CIrr4F-14">
          <mxGeometry width="160" relative="1" as="geometry">
            <mxPoint x="-440" y="1070" as="sourcePoint" />
            <mxPoint x="-320" y="670" as="targetPoint" />
            <Array as="points">
              <mxPoint x="-1010" y="390" />
            </Array>
          </mxGeometry>
        </mxCell>
        <mxCell id="LdIqDrg1HJKvF_CIrr4F-96" value="" style="rounded=0;orthogonalLoop=1;jettySize=auto;html=1;endArrow=halfCircle;endFill=0;endSize=6;strokeWidth=1;sketch=0;exitX=0;exitY=0.5;exitDx=0;exitDy=0;strokeColor=light-dark(#000000,#FFC5C5);jumpStyle=arc;" edge="1" parent="1" source="LdIqDrg1HJKvF_CIrr4F-16">
          <mxGeometry relative="1" as="geometry">
            <mxPoint x="-410" y="370" as="sourcePoint" />
            <mxPoint x="-740" y="260" as="targetPoint" />
          </mxGeometry>
        </mxCell>
        <mxCell id="LdIqDrg1HJKvF_CIrr4F-97" value="User&lt;br&gt;Regulation" style="edgeLabel;html=1;align=center;verticalAlign=middle;resizable=0;points=[];" vertex="1" connectable="0" parent="LdIqDrg1HJKvF_CIrr4F-96">
          <mxGeometry x="0.2773" relative="1" as="geometry">
            <mxPoint x="-9" as="offset" />
          </mxGeometry>
        </mxCell>
        <mxCell id="LdIqDrg1HJKvF_CIrr4F-98" value="" style="rounded=0;orthogonalLoop=1;jettySize=auto;html=1;endArrow=oval;endFill=0;sketch=0;sourcePerimeterSpacing=0;targetPerimeterSpacing=0;endSize=10;exitX=1;exitY=0.5;exitDx=0;exitDy=0;strokeColor=light-dark(#000000,#A9B8C7);jumpStyle=arc;" edge="1" parent="1" source="LdIqDrg1HJKvF_CIrr4F-14">
          <mxGeometry relative="1" as="geometry">
            <mxPoint x="-770" y="330" as="sourcePoint" />
            <mxPoint x="-740" y="260" as="targetPoint" />
          </mxGeometry>
        </mxCell>
      </root>
    </mxGraphModel>
  </diagram>
</mxfile>
